# xmcd
#
# Track frame offsets:
#	150
#	11106
#	21548
#	31882
#	42762
#	53796
#	63084
#	73784
#	84860
#	95706
#	107034
#	116919
#	126155
#	136055
#	145678
#	156863
#	168261
#	178860
#	188529
#	201167
#	213141
#	225362
#	237300
#	248089
#	257644
#	268689
#	278742
#	288991
#	299659
#	312157
#
# Disc length: 4303 seconds
#
# Revision: 1
# Processed by: cddbd v1.5.2PL0 Copyright (c) Steve Scherf et al.
# Submitted via: audiograbber 1.83.01
#
DISCID=b010cd1e
DTITLE=Various Artist - Outta Sight - The R&B Singles Collection, Vol. 3
DYEAR=2014
DGENRE=Soul
TTITLE0=Mary Ann Fisher - Put On My Shoes
TTITLE1=Faye Adams - The Hammer Keeps A Knockin'
TTITLE2=Jimmy Ricks and The Raves - Daddy Rollin' Stone
TTITLE3=Jimmy Ricks and The Suburbans - Bad Man Of Missouri
TTITLE4=Big Jay Bush and The House Rockers - Dynamite
TTITLE5=Eli Lee - I Get The Feeling
TTITLE6=Little Joe Hinton - Let's Start A Romance
TTITLE7=Little Joe Hinton - I Won't Be Your Fool
TTITLE8=Cookie Jackson - Try Love (Just One More Time)
TTITLE9=Jacki Ross - Hard Times
TTITLE10=Billy Preston - Volcano
TTITLE11=Ed Townsend - Cherrigale
TTITLE12=Carol Fran - Knock Knock
TTITLE13=Kitty White and Hugo Peretti - I'm Gonna Be A Fool Next Monday
TTITLE14=Jerry McCain - The Jig's Up
TTITLE15=Jerry McCain - Twist '62'
TTITLE16=Bruce Cloud - My Book
TTITLE17=Bruce Cloud - Lucky Is My Name
TTITLE18=LaBrenda Ben and The Beljeans - The Chaperone
TTITLE19=Saundra Mallett and The Vandellas - Camel Walk
TTITLE20=The Miracles - If Your Mother Only Knew
TTITLE21=The Miracles - That's The Way I Feel
TTITLE22=Jimmy Ruffin - Don't Feel Sorry For Me
TTITLE23=Lamont Dozier - Dearest One
TTITLE24=Sugar Pie DeSanto - Going Back Where I Belong
TTITLE25=Sugar Pie DeSanto and The Nat Hendrix Band - A Little Taste Of Soul
TTITLE26=Curtis Knight - Voodoo Woman
TTITLE27=Johnny Darrow (Johnny Moore) - Love Is A Nightmare
TTITLE28=Wilson Pickett - Let Me Be Your Boy
TTITLE29=June Alexander (Arthur Alexander) - The Girl That Radiates That Charm
EXTD=
EXTT0=
EXTT1=
EXTT2=
EXTT3=
EXTT4=
EXTT5=
EXTT6=
EXTT7=
EXTT8=
EXTT9=
EXTT10=
EXTT11=
EXTT12=
EXTT13=
EXTT14=
EXTT15=
EXTT16=
EXTT17=
EXTT18=
EXTT19=
EXTT20=
EXTT21=
EXTT22=
EXTT23=
EXTT24=
EXTT25=
EXTT26=
EXTT27=
EXTT28=
EXTT29=
PLAYORDER=
